#!OML:ASF X:\für Bonn\!DataBase\2005_08_11_Bastian_Final\c3d\Bastian.ASF
:FULLY-SPECIFIED
:DEGREES
111
root 0.561429 16.1231 0.329878 176.018 -3.75362 -171.128
lowerback 22.4105 -0.870715 -0.726367
upperback 4.59658 -2.03434 2.01044
thorax -7.365 -1.32721 3.22597
lowerneck -16.3268 -6.10692 -2.08237
upperneck -4.70893 -6.86179 10.2686
head 1.81045 -2.62075 3.31906
rclavicle -5.96354e-016 1.59028e-015
rhumerus 79.0626 3.07999 31.9785
rradius 41.0368
rwrist -85.0953
rhand -50.5479 -9.15074
rfingers 7.12502
rthumb -23.1149 -37.7841
lclavicle -5.96354e-016 1.59028e-015
lhumerus 76.2914 -10.1157 -55.7352
lradius 32.1596
lwrist 45.9193
lhand -46.5748 22.6545
lfingers 7.12502
lthumb -19.2984 51.7169
rfemur -24.1038 1.31294 32.0655
rtibia 60.8088
rfoot -25.1478 -9.98013
rtoes -6.40387
lfemur -27.5642 -4.16394 -11.2493
ltibia 72.0218
lfoot -17.7818 -0.288545
ltoes -31.5273
112
root 0.549411 16.3373 0.272962 175.862 -3.67931 -171.364
lowerback 22.0466 -0.886619 -0.827408
upperback 4.53964 -2.05863 1.90895
thorax -7.23654 -1.32785 3.16394
lowerneck -16.3426 -6.0265 -1.96644
upperneck -4.29015 -6.8516 10.1098
head 1.94099 -2.63015 3.24139
rclavicle 2.94201e-014 2.54444e-014
rhumerus 79.8075 3.66899 31.1921
rradius 40.7067
rwrist -84.635
rhand -50.3902 -8.96879
rfingers 7.12502
rthumb -22.9635 -37.6211
lclavicle 2.94201e-014 2.54444e-014
lhumerus 76.9724 -10.3424 -56.1174
lradius 32.0766
lwrist 45.896
lhand -45.9479 23.1047
lfingers 7.12502
lthumb -18.6956 52.2263
rfemur -22.2522 1.7608 31.8322
rtibia 57.872
rfoot -23.773 -10.2059
rtoes -6.08994
lfemur -25.7059 -3.90185 -11.4823
ltibia 69.1606
lfoot -16.2062 -0.356914
ltoes -30.1061
113
root 0.537524 16.5484 0.21496 175.758 -3.61878 -171.625
lowerback 21.6153 -0.911438 -0.968217
upperback 4.47338 -2.09798 1.8168
thorax -7.07978 -1.33392 3.13617
lowerneck -16.3501 -5.93818 -1.85984
upperneck -3.88654 -6.82572 9.94358
head 2.06432 -2.63206 3.16461
rclavicle 3.97569e-015 1.27222e-014
rhumerus 80.5595 4.29697 30.41
rradius 40.4077
rwrist -84.1447
rhand -50.3545 -8.63451
rfingers 7.12502
rthumb -22.9293 -37.2911
lclavicle 3.97569e-015 1.27222e-014
lhumerus 77.6734 -10.6645 -56.4122
lradius 32.0317
lwrist 45.799
lhand -45.3905 23.668
lfingers 7.12502
lthumb -18.1593 52.8403
rfemur -20.4916 2.01711 31.5877
rtibia 55.1023
rfoot -22.1851 -10.56
rtoes -6.45736
lfemur -24.0093 -3.34477 -11.7173
ltibia 66.4526
lfoot -14.7992 -0.44956
ltoes -29.0979
114
root 0.524919 16.7436 0.157972 175.756 -3.58139 -171.866
lowerback 21.0928 -0.955263 -1.05159
upperback 4.36593 -2.13822 1.71298
thorax -6.92121 -1.33702 3.06006
lowerneck -16.334 -5.8608 -1.76951
upperneck -3.48302 -6.81093 9.8121
head 2.18725 -2.63824 3.10271
rclavicle 5.96354e-016 -5.00937e-014
rhumerus 81.2615 5.00615 29.6089
rradius 40.1751
rwrist -83.6269
rhand -50.376 -8.33487
rfingers 7.12502
rthumb -22.9499 -36.9889
lclavicle 5.96354e-016 -5.00937e-014
lhumerus 78.4065 -11.0366 -56.5128
lradius 32.0244
lwrist 45.5824
lhand -44.8759 24.2518
lfingers 7.12502
lthumb -17.6642 53.4695
rfemur -18.9422 2.06981 31.3548
rtibia 52.5514
rfoot -20.4993 -10.8979
rtoes -7.15424
lfemur -22.5299 -2.54696 -11.904
ltibia 63.9031
lfoot -13.6803 -0.629405
ltoes -27.9475
115
root 0.511406 16.9236 0.10133 175.777 -3.55249 -172.112
lowerback 20.5371 -1.00669 -1.13311
upperback 4.25054 -2.18483 1.62133
thorax -6.75166 -1.34296 2.99652
lowerneck -16.3239 -5.77628 -1.6816
upperneck -3.06819 -6.7866 9.65433
head 2.31365 -2.64057 3.03302
rclavicle 3.57812e-014 -7.15625e-015
rhumerus 81.951 5.7413 28.9844
rradius 40.0149
rwrist -83.2051
rhand -50.5268 -7.92508
rfingers 7.12502
rthumb -23.0946 -36.561
lclavicle 3.57812e-014 -7.15625e-015
lhumerus 79.1292 -11.4907 -56.4756
lradius 32.0746
lwrist 45.3866
lhand -44.4761 24.8043
lfingers 7.12502
lthumb -17.2795 54.0561
rfemur -17.547 1.90732 31.1003
rtibia 50.2449
rfoot -18.8194 -11.1103
rtoes -7.85058
lfemur -21.1204 -1.63142 -12.0847
ltibia 61.465
lfoot -12.9959 -0.816626
ltoes -25.9494
116
root 0.496404 17.0944 0.046176 175.822 -3.54554 -172.377
lowerback 19.9687 -1.07006 -1.1995
upperback 4.1146 -2.24037 1.52415
thorax -6.59648 -1.35199 2.92058
lowerneck -16.2597 -5.69125 -1.62596
upperneck -2.65963 -6.75637 9.51908
head 2.43105 -2.64123 2.97851
rclavicle 1.72943e-014 -7.15625e-015
rhumerus 82.611 6.49126 28.514
rradius 39.9163
rwrist -82.8319
rhand -50.6512 -7.70608
rfingers 7.12502
rthumb -23.214 -36.327
lclavicle 1.72943e-014 -7.15625e-015
lhumerus 79.8772 -11.9772 -56.5222
lradius 32.2064
lwrist 45.5311
lhand -44.256 25.267
lfingers 7.12502
lthumb -17.0677 54.5372
rfemur -16.2951 1.60922 30.7938
rtibia 48.1931
rfoot -17.3007 -11.1988
rtoes -8.37517
lfemur -19.7752 -0.68519 -12.2881
ltibia 59.1205
lfoot -12.7939 -0.916248
ltoes -22.9413
117
root 0.480772 17.2559 -0.00767594 175.892 -3.53928 -172.626
lowerback 19.379 -1.13495 -1.24827
upperback 3.97118 -2.29223 1.44293
thorax -6.43668 -1.35959 2.85005
lowerneck -16.1711 -5.6106 -1.57593
upperneck -2.2812 -6.72532 9.38426
head 2.53418 -2.64198 2.92572
rclavicle 2.76311e-014 -2.22639e-014
rhumerus 83.2554 7.27219 28.0916
rradius 39.8156
rwrist -82.3833
rhand -50.7417 -7.50993
rfingers 7.12502
rthumb -23.3008 -36.1199
lclavicle 2.76311e-014 -2.22639e-014
lhumerus 80.617 -12.4826 -56.6502
lradius 32.3806
lwrist 45.9711
lhand -44.2051 25.464
lfingers 7.12502
lthumb -17.0187 54.7385
rfemur -15.1676 1.16753 30.4742
rtibia 46.3776
rfoot -15.9344 -11.1274
rtoes -8.58783
lfemur -18.4883 0.18754 -12.4853
ltibia 56.8265
lfoot -13.1886 -0.87143
ltoes -20.1511
